<svg width="24" height="24" viewBox="0 0 24 24" fill="none" xmlns="http://www.w3.org/2000/svg">
  <path d="M15.5 13a2.5 2.5 0 1 0 0-5 2.5 2.5 0 0 0 0 5Z" stroke="#7c3aed" stroke-width="1.5" stroke-linecap="round" stroke-linejoin="round"/>
  <path d="M8.5 13a2.5 2.5 0 1 0 0-5 2.5 2.5 0 0 0 0 5Z" stroke="#7c3aed" stroke-width="1.5" stroke-linecap="round" stroke-linejoin="round"/>
  <path d="M15.5 19a2.5 2.5 0 1 0 0-5 2.5 2.5 0 0 0 0 5Z" stroke="#7c3aed" stroke-width="1.5" stroke-linecap="round" stroke-linejoin="round"/>
  <path d="M8.5 19a2.5 2.5 0 1 0 0-5 2.5 2.5 0 0 0 0 5Z" stroke="#7c3aed" stroke-width="1.5" stroke-linecap="round" stroke-linejoin="round"/>
  <path d="M8.5 8v.5" stroke="#7c3aed" stroke-width="1.5" stroke-linecap="round" stroke-linejoin="round"/>
  <path d="M15.5 8v.5" stroke="#7c3aed" stroke-width="1.5" stroke-linecap="round" stroke-linejoin="round"/>
  <path d="M15.5 16v.5" stroke="#7c3aed" stroke-width="1.5" stroke-linecap="round" stroke-linejoin="round"/>
  <path d="M8.5 16v.5" stroke="#7c3aed" stroke-width="1.5" stroke-linecap="round" stroke-linejoin="round"/>
  <path d="M12 22c5.523 0 10-4.477 10-10S17.523 2 12 2 2 6.477 2 12s4.477 10 10 10Z" stroke="#0070cc" stroke-width="1.5" stroke-linecap="round" stroke-linejoin="round"/>
</svg>